<svg width="318" height="376" viewBox="0 0 318 376" fill="none" xmlns="http://www.w3.org/2000/svg">
<path d="M115.995 341C150.495 358 177 324 177 324C186.501 352.5 168.411 371 148.995 371C130.495 371 115.995 356 115.995 341Z" fill="#DF9098" stroke="black" stroke-width="10"/>
<path d="M177.5 323.5C166.833 337.333 135 360.5 100.5 330.5" stroke="black" stroke-width="10" stroke-linecap="round" stroke-linejoin="round"/>
<path d="M210 353.5C199.833 349.167 177.9 331.6 171.5 296" stroke="black" stroke-width="10" stroke-linecap="round" stroke-linejoin="round"/>
<ellipse cx="80.5" cy="136" rx="80.5" ry="136" transform="matrix(-1 0 0 1 164 3)" fill="#F9F4EC" stroke="black" stroke-width="5"/>
<path fill-rule="evenodd" clip-rule="evenodd" d="M63.3142 270.689C28.6249 255.556 3 202.334 3 139C3 75.6664 28.6249 22.4442 63.3142 7.31104C99.9427 22.4442 127 75.6664 127 139C127 202.334 99.9427 255.556 63.3142 270.689Z" fill="#241F21"/>
<mask id="path-6-inside-1_160_74" fill="white">
<path fill-rule="evenodd" clip-rule="evenodd" d="M14.1996 208.242C28.22 248.207 54.0078 275 83.4997 275C114.374 275 141.188 245.637 154.692 202.539C115.23 177.598 62.0575 164.93 14.1996 208.242Z"/>
</mask>
<path fill-rule="evenodd" clip-rule="evenodd" d="M14.1996 208.242C28.22 248.207 54.0078 275 83.4997 275C114.374 275 141.188 245.637 154.692 202.539C115.23 177.598 62.0575 164.93 14.1996 208.242Z" fill="#DF9098"/>
<path d="M14.1996 208.242L9.48152 209.897L8.38209 206.763L10.8445 204.535L14.1996 208.242ZM154.692 202.539L157.364 198.312L160.613 200.366L159.464 204.034L154.692 202.539ZM18.9177 206.587C32.7168 245.92 57.2894 270 83.4997 270V280C50.7262 280 23.7233 250.493 9.48152 209.897L18.9177 206.587ZM83.4997 270C110.945 270 136.6 243.555 149.921 201.044L159.464 204.034C145.776 247.718 117.802 280 83.4997 280V270ZM10.8445 204.535C35.7333 182.01 62.2572 173.881 87.7741 174.799C113.136 175.711 137.151 185.538 157.364 198.312L152.021 206.765C132.771 194.599 110.47 185.622 87.4147 184.792C64.5152 183.969 40.5238 191.162 17.5547 211.949L10.8445 204.535Z" fill="black" mask="url(#path-6-inside-1_160_74)"/>
<path d="M151.598 149C163.099 108 142.431 84 134.098 70L58.5982 149H151.598Z" fill="#F9F4EC"/>
<ellipse cx="80.5" cy="136" rx="80.5" ry="136" transform="matrix(-1 0 0 1 315 7)" fill="#F9F4EC" stroke="black" stroke-width="5"/>
<path fill-rule="evenodd" clip-rule="evenodd" d="M214.314 274.689C179.625 259.556 154 206.334 154 143C154 79.6664 179.625 26.4442 214.314 11.311C250.943 26.4442 278 79.6664 278 143C278 206.334 250.943 259.556 214.314 274.689Z" fill="#241F21"/>
<mask id="path-11-inside-2_160_74" fill="white">
<path fill-rule="evenodd" clip-rule="evenodd" d="M165.2 212.242C179.22 252.207 205.008 279 234.5 279C265.374 279 292.188 249.637 305.692 206.539C266.23 181.598 213.057 168.93 165.2 212.242Z"/>
</mask>
<path fill-rule="evenodd" clip-rule="evenodd" d="M165.2 212.242C179.22 252.207 205.008 279 234.5 279C265.374 279 292.188 249.637 305.692 206.539C266.23 181.598 213.057 168.93 165.2 212.242Z" fill="#DF9098"/>
<path d="M165.2 212.242L160.482 213.897L159.382 210.763L161.845 208.535L165.2 212.242ZM305.692 206.539L308.364 202.312L311.613 204.366L310.464 208.034L305.692 206.539ZM169.918 210.587C183.717 249.92 208.289 274 234.5 274V284C201.726 284 174.723 254.493 160.482 213.897L169.918 210.587ZM234.5 274C261.945 274 287.6 247.555 300.921 205.044L310.464 208.034C296.776 251.718 268.802 284 234.5 284V274ZM161.845 208.535C186.733 186.01 213.257 177.881 238.774 178.799C264.136 179.711 288.151 189.538 308.364 202.312L303.021 210.765C283.771 198.599 261.47 189.622 238.415 188.792C215.515 187.969 191.524 195.162 168.555 215.949L161.845 208.535Z" fill="black" mask="url(#path-11-inside-2_160_74)"/>
<path d="M302.598 153C314.099 112 293.431 88 285.098 74L209.598 153H302.598Z" fill="#F9F4EC"/>
</svg>
