<svg width="318" height="376" viewBox="0 0 318 376" fill="none" xmlns="http://www.w3.org/2000/svg">
<path d="M202.005 341C167.505 358 141 324 141 324C131.499 352.5 149.589 371 169.005 371C187.505 371 202.005 356 202.005 341Z" fill="#DF9098" stroke="black" stroke-width="10"/>
<path d="M140.5 323.5C151.167 337.333 183 360.5 217.5 330.5" stroke="black" stroke-width="10" stroke-linecap="round" stroke-linejoin="round"/>
<path d="M108 353.5C118.167 349.167 140.1 331.6 146.5 296" stroke="black" stroke-width="10" stroke-linecap="round" stroke-linejoin="round"/>
<ellipse cx="234.5" cy="139" rx="80.5" ry="136" fill="#F9F4EC" stroke="black" stroke-width="5"/>
<path fill-rule="evenodd" clip-rule="evenodd" d="M254.686 270.689C289.375 255.556 315 202.334 315 139C315 75.6663 289.375 22.4441 254.686 7.31104C218.057 22.4441 191 75.6663 191 139C191 202.334 218.057 255.556 254.686 270.689Z" fill="#241F21"/>
<mask id="path-6-inside-1_150_73" fill="white">
<path fill-rule="evenodd" clip-rule="evenodd" d="M303.8 208.242C289.78 248.207 263.992 275 234.5 275C203.626 275 176.812 245.637 163.308 202.539C202.77 177.598 255.943 164.93 303.8 208.242Z"/>
</mask>
<path fill-rule="evenodd" clip-rule="evenodd" d="M303.8 208.242C289.78 248.207 263.992 275 234.5 275C203.626 275 176.812 245.637 163.308 202.539C202.77 177.598 255.943 164.93 303.8 208.242Z" fill="#DF9098"/>
<path d="M303.8 208.242L308.518 209.897L309.618 206.763L307.155 204.535L303.8 208.242ZM163.308 202.539L160.636 198.312L157.387 200.366L158.536 204.034L163.308 202.539ZM299.082 206.587C285.283 245.92 260.711 270 234.5 270V280C267.274 280 294.277 250.493 308.518 209.897L299.082 206.587ZM234.5 270C207.055 270 181.4 243.555 168.079 201.044L158.536 204.034C172.224 247.718 200.198 280 234.5 280V270ZM307.155 204.535C282.267 182.01 255.743 173.881 230.226 174.799C204.864 175.711 180.849 185.538 160.636 198.312L165.979 206.765C185.229 194.599 207.53 185.622 230.585 184.792C253.485 183.969 277.476 191.162 300.445 211.949L307.155 204.535Z" fill="black" mask="url(#path-6-inside-1_150_73)"/>
<path d="M166.402 149C154.901 108 175.569 84 183.902 70L259.402 149H166.402Z" fill="#F9F4EC"/>
<ellipse cx="83.5" cy="143" rx="80.5" ry="136" fill="#F9F4EC" stroke="black" stroke-width="5"/>
<path fill-rule="evenodd" clip-rule="evenodd" d="M103.686 274.689C138.375 259.556 164 206.334 164 143C164 79.6664 138.375 26.4442 103.686 11.311C67.0573 26.4442 40 79.6664 40 143C40 206.334 67.0573 259.556 103.686 274.689Z" fill="#241F21"/>
<mask id="path-11-inside-2_150_73" fill="white">
<path fill-rule="evenodd" clip-rule="evenodd" d="M152.8 212.242C138.78 252.207 112.992 279 83.5003 279C52.6264 279 25.812 249.637 12.3076 206.539C51.7697 181.598 104.943 168.93 152.8 212.242Z"/>
</mask>
<path fill-rule="evenodd" clip-rule="evenodd" d="M152.8 212.242C138.78 252.207 112.992 279 83.5003 279C52.6264 279 25.812 249.637 12.3076 206.539C51.7697 181.598 104.943 168.93 152.8 212.242Z" fill="#DF9098"/>
<path d="M152.8 212.242L157.518 213.897L158.618 210.763L156.155 208.535L152.8 212.242ZM12.3076 206.539L9.63637 202.312L6.38701 204.366L7.53636 208.034L12.3076 206.539ZM148.082 210.587C134.283 249.92 109.711 274 83.5003 274V284C116.274 284 143.277 254.493 157.518 213.897L148.082 210.587ZM83.5003 274C56.0549 274 30.3996 247.555 17.0789 205.044L7.53636 208.034C21.2245 251.718 49.198 284 83.5003 284V274ZM156.155 208.535C131.267 186.01 104.743 177.881 79.2259 178.799C53.8643 179.711 29.8486 189.538 9.63637 202.312L14.9789 210.765C34.2287 198.599 56.5304 189.622 79.5853 188.792C102.485 187.969 126.476 195.162 149.445 215.949L156.155 208.535Z" fill="black" mask="url(#path-11-inside-2_150_73)"/>
<path d="M15.4019 153C3.90092 112 24.5686 88 32.9019 74L108.402 153H15.4019Z" fill="#F9F4EC"/>
</svg>
