<svg width="320" height="377" viewBox="0 0 320 377" fill="none" xmlns="http://www.w3.org/2000/svg">
<path d="M116.995 342C151.495 359 178 325 178 325C187.501 353.5 169.411 372 149.995 372C131.495 372 116.995 357 116.995 342Z" fill="#DF9098" stroke="black" stroke-width="10"/>
<path d="M178.5 324.5C167.833 338.333 136 361.5 101.5 331.5" stroke="black" stroke-width="10" stroke-linecap="round" stroke-linejoin="round"/>
<path d="M211 354.5C200.833 350.167 178.9 332.6 172.5 297" stroke="black" stroke-width="10" stroke-linecap="round" stroke-linejoin="round"/>
<ellipse cx="80.5" cy="136" rx="80.5" ry="136" transform="matrix(-1 0 0 1 165 4)" fill="#F9F4EC" stroke="black" stroke-width="5"/>
<path fill-rule="evenodd" clip-rule="evenodd" d="M64.3142 271.689C29.6249 256.556 4 203.333 4 140C4 76.6664 29.6249 23.4442 64.3142 8.31104C100.943 23.4442 128 76.6664 128 140C128 203.333 100.943 256.556 64.3142 271.689Z" fill="#241F21"/>
<mask id="path-6-inside-1_160_74" fill="white">
<path fill-rule="evenodd" clip-rule="evenodd" d="M15.1996 209.242C29.22 249.207 55.0078 276 84.4997 276C115.374 276 142.188 246.637 155.692 203.539C116.23 178.598 63.0575 165.93 15.1996 209.242Z"/>
</mask>
<path fill-rule="evenodd" clip-rule="evenodd" d="M15.1996 209.242C29.22 249.207 55.0078 276 84.4997 276C115.374 276 142.188 246.637 155.692 203.539C116.23 178.598 63.0575 165.93 15.1996 209.242Z" fill="#DF9098"/>
<path d="M15.1996 209.242L10.4815 210.897L9.3821 207.763L11.8445 205.535L15.1996 209.242ZM155.692 203.539L158.364 199.312L161.613 201.365L160.464 205.034L155.692 203.539ZM19.9177 207.587C33.7168 246.92 58.2894 271 84.4997 271V281C51.7262 281 24.7233 251.493 10.4815 210.897L19.9177 207.587ZM84.4997 271C111.945 271 137.6 244.555 150.921 202.044L160.464 205.034C146.776 248.718 118.802 281 84.4997 281V271ZM11.8445 205.535C36.7333 183.01 63.2572 174.881 88.7741 175.799C114.136 176.711 138.151 186.538 158.364 199.312L153.021 207.765C133.771 195.599 111.47 186.622 88.4147 185.792C65.5152 184.969 41.5238 192.162 18.5547 212.949L11.8445 205.535Z" fill="black" mask="url(#path-6-inside-1_160_74)"/>
<path d="M152.598 150C164.099 109 143.431 85 135.098 71L59.5982 150H152.598Z" fill="#F9F4EC"/>
<ellipse cx="80.5" cy="136" rx="80.5" ry="136" transform="matrix(-1 0 0 1 165 4)" stroke="black" stroke-width="7"/>
<ellipse cx="80.5" cy="136" rx="80.5" ry="136" transform="matrix(-1 0 0 1 316 8)" fill="#F9F4EC" stroke="black" stroke-width="5"/>
<path fill-rule="evenodd" clip-rule="evenodd" d="M215.314 275.689C180.625 260.556 155 207.333 155 144C155 80.6664 180.625 27.4442 215.314 12.311C251.943 27.4442 279 80.6664 279 144C279 207.333 251.943 260.556 215.314 275.689Z" fill="#241F21"/>
<mask id="path-12-inside-2_160_74" fill="white">
<path fill-rule="evenodd" clip-rule="evenodd" d="M166.2 213.242C180.22 253.207 206.008 280 235.5 280C266.374 280 293.188 250.637 306.692 207.539C267.23 182.598 214.057 169.93 166.2 213.242Z"/>
</mask>
<path fill-rule="evenodd" clip-rule="evenodd" d="M166.2 213.242C180.22 253.207 206.008 280 235.5 280C266.374 280 293.188 250.637 306.692 207.539C267.23 182.598 214.057 169.93 166.2 213.242Z" fill="#DF9098"/>
<path d="M166.2 213.242L161.482 214.897L160.382 211.763L162.845 209.535L166.2 213.242ZM306.692 207.539L309.364 203.312L312.613 205.365L311.464 209.034L306.692 207.539ZM170.918 211.587C184.717 250.92 209.289 275 235.5 275V285C202.726 285 175.723 255.493 161.482 214.897L170.918 211.587ZM235.5 275C262.945 275 288.6 248.555 301.921 206.044L311.464 209.034C297.776 252.718 269.802 285 235.5 285V275ZM162.845 209.535C187.733 187.01 214.257 178.881 239.774 179.799C265.136 180.711 289.151 190.538 309.364 203.312L304.021 211.765C284.771 199.599 262.47 190.622 239.415 189.792C216.515 188.969 192.524 196.162 169.555 216.949L162.845 209.535Z" fill="black" mask="url(#path-12-inside-2_160_74)"/>
<path d="M303.598 154C315.099 113 294.431 89 286.098 75L210.598 154H303.598Z" fill="#F9F4EC"/>
<ellipse cx="80.5" cy="136" rx="80.5" ry="136" transform="matrix(-1 0 0 1 316 8)" stroke="black" stroke-width="7"/>
</svg>
