<svg width="320" height="377" viewBox="0 0 320 377" fill="none" xmlns="http://www.w3.org/2000/svg">
<path d="M203.005 342C168.505 359 142 325 142 325C132.499 353.5 150.589 372 170.005 372C188.505 372 203.005 357 203.005 342Z" fill="#DF9098" stroke="black" stroke-width="10"/>
<path d="M141.5 324.5C152.167 338.333 184 361.5 218.5 331.5" stroke="black" stroke-width="10" stroke-linecap="round" stroke-linejoin="round"/>
<path d="M109 354.5C119.167 350.167 141.1 332.6 147.5 297" stroke="black" stroke-width="10" stroke-linecap="round" stroke-linejoin="round"/>
<ellipse cx="235.5" cy="140" rx="80.5" ry="136" fill="#F9F4EC" stroke="black" stroke-width="5"/>
<path fill-rule="evenodd" clip-rule="evenodd" d="M255.686 271.689C290.375 256.556 316 203.334 316 140C316 76.6663 290.375 23.4441 255.686 8.31104C219.057 23.4441 192 76.6663 192 140C192 203.334 219.057 256.556 255.686 271.689Z" fill="#241F21"/>
<mask id="path-6-inside-1_150_73" fill="white">
<path fill-rule="evenodd" clip-rule="evenodd" d="M304.8 209.242C290.78 249.207 264.992 276 235.5 276C204.626 276 177.812 246.637 164.308 203.539C203.77 178.598 256.943 165.93 304.8 209.242Z"/>
</mask>
<path fill-rule="evenodd" clip-rule="evenodd" d="M304.8 209.242C290.78 249.207 264.992 276 235.5 276C204.626 276 177.812 246.637 164.308 203.539C203.77 178.598 256.943 165.93 304.8 209.242Z" fill="#DF9098"/>
<path d="M304.8 209.242L309.518 210.897L310.618 207.763L308.155 205.535L304.8 209.242ZM164.308 203.539L161.636 199.312L158.387 201.366L159.536 205.034L164.308 203.539ZM300.082 207.587C286.283 246.92 261.711 271 235.5 271V281C268.274 281 295.277 251.493 309.518 210.897L300.082 207.587ZM235.5 271C208.055 271 182.4 244.555 169.079 202.044L159.536 205.034C173.224 248.718 201.198 281 235.5 281V271ZM308.155 205.535C283.267 183.01 256.743 174.881 231.226 175.799C205.864 176.711 181.849 186.538 161.636 199.312L166.979 207.765C186.229 195.599 208.53 186.622 231.585 185.792C254.485 184.969 278.476 192.162 301.445 212.949L308.155 205.535Z" fill="black" mask="url(#path-6-inside-1_150_73)"/>
<path d="M167.402 150C155.901 109 176.569 85 184.902 71L260.402 150H167.402Z" fill="#F9F4EC"/>
<ellipse cx="235.5" cy="140" rx="80.5" ry="136" stroke="black" stroke-width="7"/>
<ellipse cx="84.5" cy="144" rx="80.5" ry="136" fill="#F9F4EC" stroke="black" stroke-width="5"/>
<path fill-rule="evenodd" clip-rule="evenodd" d="M104.686 275.689C139.375 260.556 165 207.333 165 144C165 80.6664 139.375 27.4442 104.686 12.311C68.0573 27.4442 41 80.6664 41 144C41 207.333 68.0573 260.556 104.686 275.689Z" fill="#241F21"/>
<mask id="path-12-inside-2_150_73" fill="white">
<path fill-rule="evenodd" clip-rule="evenodd" d="M153.8 213.242C139.78 253.207 113.992 280 84.5003 280C53.6264 280 26.812 250.637 13.3076 207.539C52.7697 182.598 105.943 169.93 153.8 213.242Z"/>
</mask>
<path fill-rule="evenodd" clip-rule="evenodd" d="M153.8 213.242C139.78 253.207 113.992 280 84.5003 280C53.6264 280 26.812 250.637 13.3076 207.539C52.7697 182.598 105.943 169.93 153.8 213.242Z" fill="#DF9098"/>
<path d="M153.8 213.242L158.518 214.897L159.618 211.763L157.155 209.535L153.8 213.242ZM13.3076 207.539L10.6364 203.312L7.38701 205.365L8.53636 209.034L13.3076 207.539ZM149.082 211.587C135.283 250.92 110.711 275 84.5003 275V285C117.274 285 144.277 255.493 158.518 214.897L149.082 211.587ZM84.5003 275C57.0549 275 31.3996 248.555 18.0789 206.044L8.53636 209.034C22.2245 252.718 50.198 285 84.5003 285V275ZM157.155 209.535C132.267 187.01 105.743 178.881 80.2259 179.799C54.8643 180.711 30.8486 190.538 10.6364 203.312L15.9789 211.765C35.2287 199.599 57.5304 190.622 80.5853 189.792C103.485 188.969 127.476 196.162 150.445 216.949L157.155 209.535Z" fill="black" mask="url(#path-12-inside-2_150_73)"/>
<path d="M16.4019 154C4.90092 113 25.5686 89 33.9019 75L109.402 154H16.4019Z" fill="#F9F4EC"/>
<ellipse cx="84.5" cy="144" rx="80.5" ry="136" stroke="black" stroke-width="7"/>
</svg>
