<svg width="851" height="851" viewBox="0 0 851 851" fill="none" xmlns="http://www.w3.org/2000/svg">
<circle cx="425.5" cy="425.5" r="423" fill="#B4D5EB" stroke="black" stroke-width="5"/>
<mask id="path-2-inside-1_143_8" fill="white">
<path fill-rule="evenodd" clip-rule="evenodd" d="M525.599 11.8408C525.644 15.7741 526.935 19.4352 530 22.5C538.098 30.5981 542.097 34.5975 544.073 39.4251C546 44.1357 546 49.6349 546 60.5C546 82.5 530 102.5 518 92.5C506 82.5 484.5 68.5 472.5 72.5C451.7 99.7 433.167 106.5 426.5 106.5V128C426.5 152 414.5 164.667 408.5 168C409.167 164.667 407.7 156 396.5 148C385.3 140 366.5 144.667 358.5 148H346.5L358.5 168C359.833 166 363.3 165.6 366.5 180C360.1 216.8 350.5 232.667 346.5 236H311C305.167 240.833 297 252.4 311 260C325 267.6 328.5 281.5 328.5 287.5C320 282.167 300.6 278.3 291 305.5C281.4 332.7 268.333 352.833 263 359.5C252.333 371.5 234.199 398.7 246.999 411.5C254.756 419.256 254.522 431.124 254.273 443.801C254.008 457.276 253.726 471.664 263 483C266.542 487.329 269.174 491.037 271.387 494.155C280.423 506.885 282.485 509.791 311 505C335.226 500.93 344.783 502.415 353.494 503.768C357.548 504.398 361.419 505 366.5 505H408.5C435.7 505 443.833 515.667 444.5 521L426.5 541C435.167 544.5 453.3 557 456.5 579C457.623 586.723 459.062 592.907 460.285 598.163C463.416 611.624 465.13 618.993 456.5 630.5C456.5 659.627 458.472 662.461 463.141 669.172C465.525 672.598 468.613 677.035 472.5 686.5C481.7 708.9 476.333 734.5 472.5 744.5C475 741.333 484.4 736.9 502 744.5C505.996 746.226 508.739 747.654 510.779 748.717L510.78 748.718C513.394 750.08 514.855 750.841 516.323 750.855C518.181 750.874 520.051 749.697 524.287 747.029C528.467 744.398 534.951 740.315 546 734.5C569.954 721.893 572.45 718.027 578.036 709.378C581.312 704.306 585.65 697.589 596 686.5C598.077 684.275 600.074 682.137 601.995 680.082L601.995 680.081L601.998 680.078L601.999 680.077L602.002 680.075C625.964 654.431 637.946 641.609 643.5 630.5C645.373 626.754 648.415 623.739 651.349 620.832L651.349 620.831C657.814 614.424 663.754 608.537 655.5 596.5C651.856 591.186 647.106 589.33 642.93 587.698C633.351 583.954 626.787 581.389 643.5 541C693.1 459.4 690.833 408.667 683.5 393.5C690.167 382.833 697.5 357.1 673.5 339.5C659.369 329.137 652.892 329.424 646.65 329.701C639.641 330.013 632.926 330.311 616 315.5C613.073 311.01 610.35 306.818 607.808 302.906L607.791 302.88C583.569 265.6 575.801 253.644 565.118 249.81C560.074 248 554.381 248 546 248C518 248 515.5 248.5 486 260C472.013 265.453 464.657 265.622 457.592 265.785C449.756 265.966 442.276 266.138 426.5 273.5C402.5 284.7 387.167 278.167 382.5 273.5C383.167 265 386.9 248 396.5 248C406.1 248 432.5 240 444.5 236H486C511.6 236 518 220 518 212L546 186C559.333 194.667 588 212 596 212C598.713 212 600.506 209.24 602.477 206.206C607.771 198.057 614.351 187.928 643.5 224C659.383 243.656 664.545 254.876 668 262.387C673.247 273.792 674.56 276.648 703.5 287.5C723.12 294.857 736.725 296.868 746.5 298.314C760.642 300.404 766.77 301.31 771.5 315.5C779.5 339.5 786 353.5 797.5 373.5C806.7 389.5 821 393.5 827 393.5H849.815C835.969 207.284 702.273 54.4405 525.599 11.8408ZM244.257 40.4197C155.649 82.1973 83.7893 153.658 41.5028 241.978C46.9481 241.857 52.1174 241.073 55.4995 236C59.1399 230.539 65.6792 225.079 73.7983 218.299L73.7985 218.299C83.5217 210.18 95.5106 200.169 107.499 186C125.514 164.71 135.482 162.194 166.777 154.295L166.779 154.295C173.703 152.547 181.67 150.536 190.999 148C225.328 138.668 221.889 130.225 218.149 121.041C216.278 116.447 214.332 111.668 216.999 106.5C219.856 100.965 224.499 97.3421 229.287 93.606C237.907 86.8804 246.999 79.7862 246.999 60.5C246.999 53.317 245.925 46.5521 244.257 40.4197ZM14.4608 315.105C5.02901 350.312 0 387.318 0 425.5C0 544.356 48.7327 651.831 127.307 729.031C130.907 722.812 134.446 717.553 137.5 714.5C146.271 705.728 142.219 679.857 139.404 661.885C138.368 655.272 137.5 649.728 137.5 646.5C137.5 643.519 137.746 638.099 138.056 631.299C138.993 610.73 140.506 577.534 137.5 561C136.38 554.841 135.887 550.563 135.495 547.157C134.485 538.396 134.14 535.401 125.5 521C117.618 507.864 112.324 503.356 104.519 496.708C100.441 493.235 95.6769 489.177 89.4996 483C71.4997 465 71.4996 455 71.4996 439C71.4996 434.193 72.2216 429.251 73.015 423.821C74.8623 411.176 77.0962 395.886 71.4996 373.5C66.5889 353.857 61.6781 352.301 53.9919 349.864C49.1565 348.332 43.2228 346.451 35.4996 339.5C22.5977 327.888 20.5156 324.599 16.9044 318.895C16.1835 317.757 15.4017 316.522 14.4608 315.105ZM328.5 38.5H382.5C393.167 38.5 410.9 42.9 396.5 60.5C394.615 62.8033 392.972 64.8874 391.478 66.7821C378.702 82.9845 376.846 85.3375 328.5 92.5C296.626 97.2221 296.98 97.7633 298.096 99.4705C298.871 100.656 300.014 102.403 291 106.5C287.421 108.127 284.477 109.74 282.143 111.02C278.685 112.915 276.564 114.078 275.696 113.465C274.319 112.493 276.095 107.053 280.69 92.9828L280.691 92.98L280.692 92.9769C283.264 85.0992 286.72 74.5169 291 60.5C308.6 42.9 323.333 38.5 328.5 38.5ZM673.5 618.5L703.5 596.5V630.5V698.5H673.5L655.5 686.5C661.5 675.187 669.9 651.348 655.5 646.5C641.1 641.652 661.5 625.813 673.5 618.5ZM311 128L303 140H346.5L366.5 128L358.5 106.5L311 128Z"/>
</mask>
<path fill-rule="evenodd" clip-rule="evenodd" d="M525.599 11.8408C525.644 15.7741 526.935 19.4352 530 22.5C538.098 30.5981 542.097 34.5975 544.073 39.4251C546 44.1357 546 49.6349 546 60.5C546 82.5 530 102.5 518 92.5C506 82.5 484.5 68.5 472.5 72.5C451.7 99.7 433.167 106.5 426.5 106.5V128C426.5 152 414.5 164.667 408.5 168C409.167 164.667 407.7 156 396.5 148C385.3 140 366.5 144.667 358.5 148H346.5L358.5 168C359.833 166 363.3 165.6 366.5 180C360.1 216.8 350.5 232.667 346.5 236H311C305.167 240.833 297 252.4 311 260C325 267.6 328.5 281.5 328.5 287.5C320 282.167 300.6 278.3 291 305.5C281.4 332.7 268.333 352.833 263 359.5C252.333 371.5 234.199 398.7 246.999 411.5C254.756 419.256 254.522 431.124 254.273 443.801C254.008 457.276 253.726 471.664 263 483C266.542 487.329 269.174 491.037 271.387 494.155C280.423 506.885 282.485 509.791 311 505C335.226 500.93 344.783 502.415 353.494 503.768C357.548 504.398 361.419 505 366.5 505H408.5C435.7 505 443.833 515.667 444.5 521L426.5 541C435.167 544.5 453.3 557 456.5 579C457.623 586.723 459.062 592.907 460.285 598.163C463.416 611.624 465.13 618.993 456.5 630.5C456.5 659.627 458.472 662.461 463.141 669.172C465.525 672.598 468.613 677.035 472.5 686.5C481.7 708.9 476.333 734.5 472.5 744.5C475 741.333 484.4 736.9 502 744.5C505.996 746.226 508.739 747.654 510.779 748.717L510.78 748.718C513.394 750.08 514.855 750.841 516.323 750.855C518.181 750.874 520.051 749.697 524.287 747.029C528.467 744.398 534.951 740.315 546 734.5C569.954 721.893 572.45 718.027 578.036 709.378C581.312 704.306 585.65 697.589 596 686.5C598.077 684.275 600.074 682.137 601.995 680.082L601.995 680.081L601.998 680.078L601.999 680.077L602.002 680.075C625.964 654.431 637.946 641.609 643.5 630.5C645.373 626.754 648.415 623.739 651.349 620.832L651.349 620.831C657.814 614.424 663.754 608.537 655.5 596.5C651.856 591.186 647.106 589.33 642.93 587.698C633.351 583.954 626.787 581.389 643.5 541C693.1 459.4 690.833 408.667 683.5 393.5C690.167 382.833 697.5 357.1 673.5 339.5C659.369 329.137 652.892 329.424 646.65 329.701C639.641 330.013 632.926 330.311 616 315.5C613.073 311.01 610.35 306.818 607.808 302.906L607.791 302.88C583.569 265.6 575.801 253.644 565.118 249.81C560.074 248 554.381 248 546 248C518 248 515.5 248.5 486 260C472.013 265.453 464.657 265.622 457.592 265.785C449.756 265.966 442.276 266.138 426.5 273.5C402.5 284.7 387.167 278.167 382.5 273.5C383.167 265 386.9 248 396.5 248C406.1 248 432.5 240 444.5 236H486C511.6 236 518 220 518 212L546 186C559.333 194.667 588 212 596 212C598.713 212 600.506 209.24 602.477 206.206C607.771 198.057 614.351 187.928 643.5 224C659.383 243.656 664.545 254.876 668 262.387C673.247 273.792 674.56 276.648 703.5 287.5C723.12 294.857 736.725 296.868 746.5 298.314C760.642 300.404 766.77 301.31 771.5 315.5C779.5 339.5 786 353.5 797.5 373.5C806.7 389.5 821 393.5 827 393.5H849.815C835.969 207.284 702.273 54.4405 525.599 11.8408ZM244.257 40.4197C155.649 82.1973 83.7893 153.658 41.5028 241.978C46.9481 241.857 52.1174 241.073 55.4995 236C59.1399 230.539 65.6792 225.079 73.7983 218.299L73.7985 218.299C83.5217 210.18 95.5106 200.169 107.499 186C125.514 164.71 135.482 162.194 166.777 154.295L166.779 154.295C173.703 152.547 181.67 150.536 190.999 148C225.328 138.668 221.889 130.225 218.149 121.041C216.278 116.447 214.332 111.668 216.999 106.5C219.856 100.965 224.499 97.3421 229.287 93.606C237.907 86.8804 246.999 79.7862 246.999 60.5C246.999 53.317 245.925 46.5521 244.257 40.4197ZM14.4608 315.105C5.02901 350.312 0 387.318 0 425.5C0 544.356 48.7327 651.831 127.307 729.031C130.907 722.812 134.446 717.553 137.5 714.5C146.271 705.728 142.219 679.857 139.404 661.885C138.368 655.272 137.5 649.728 137.5 646.5C137.5 643.519 137.746 638.099 138.056 631.299C138.993 610.73 140.506 577.534 137.5 561C136.38 554.841 135.887 550.563 135.495 547.157C134.485 538.396 134.14 535.401 125.5 521C117.618 507.864 112.324 503.356 104.519 496.708C100.441 493.235 95.6769 489.177 89.4996 483C71.4997 465 71.4996 455 71.4996 439C71.4996 434.193 72.2216 429.251 73.015 423.821C74.8623 411.176 77.0962 395.886 71.4996 373.5C66.5889 353.857 61.6781 352.301 53.9919 349.864C49.1565 348.332 43.2228 346.451 35.4996 339.5C22.5977 327.888 20.5156 324.599 16.9044 318.895C16.1835 317.757 15.4017 316.522 14.4608 315.105ZM328.5 38.5H382.5C393.167 38.5 410.9 42.9 396.5 60.5C394.615 62.8033 392.972 64.8874 391.478 66.7821C378.702 82.9845 376.846 85.3375 328.5 92.5C296.626 97.2221 296.98 97.7633 298.096 99.4705C298.871 100.656 300.014 102.403 291 106.5C287.421 108.127 284.477 109.74 282.143 111.02C278.685 112.915 276.564 114.078 275.696 113.465C274.319 112.493 276.095 107.053 280.69 92.9828L280.691 92.98L280.692 92.9769C283.264 85.0992 286.72 74.5169 291 60.5C308.6 42.9 323.333 38.5 328.5 38.5ZM673.5 618.5L703.5 596.5V630.5V698.5H673.5L655.5 686.5C661.5 675.187 669.9 651.348 655.5 646.5C641.1 641.652 661.5 625.813 673.5 618.5ZM311 128L303 140H346.5L366.5 128L358.5 106.5L311 128Z" fill="#A2BA67"/>
<path d="M530 22.5L534.95 17.5502L534.95 17.5502L530 22.5ZM525.599 11.8408L527.24 5.03584L518.496 2.92762L518.599 11.9211L525.599 11.8408ZM544.073 39.4251L550.551 36.7744V36.7743L544.073 39.4251ZM472.5 72.5L470.286 65.8592L468.246 66.5393L466.939 68.2478L472.5 72.5ZM426.5 106.5V99.5H419.5V106.5H426.5ZM408.5 168L401.636 166.627L398.667 181.47L411.9 174.119L408.5 168ZM358.5 148V155H359.9L361.192 154.462L358.5 148ZM346.5 148V141H334.137L340.498 151.601L346.5 148ZM358.5 168L352.498 171.601L358.189 181.087L364.324 171.883L358.5 168ZM366.5 180L373.396 181.199L373.634 179.834L373.333 178.481L366.5 180ZM346.5 236V243H349.034L350.981 241.378L346.5 236ZM311 236V229H308.477L306.534 230.61L311 236ZM328.5 287.5L324.78 293.429L335.5 300.156V287.5H328.5ZM263 359.5L268.232 364.151L268.353 364.015L268.466 363.873L263 359.5ZM246.999 411.5L242.05 416.45L246.999 411.5ZM254.273 443.801L261.272 443.939L254.273 443.801ZM263 483L268.418 478.567L263 483ZM271.387 494.155L265.679 498.207V498.207L271.387 494.155ZM311 505L312.16 511.903L311 505ZM353.494 503.768L352.419 510.685L353.494 503.768ZM444.5 521L449.703 525.683L451.843 523.305L451.446 520.132L444.5 521ZM426.5 541L421.297 536.317L414.61 543.747L423.879 547.491L426.5 541ZM456.5 579L449.573 580.008L456.5 579ZM460.285 598.163L453.467 599.749V599.749L460.285 598.163ZM456.5 630.5L450.9 626.3L449.5 628.167V630.5H456.5ZM463.141 669.172L457.395 673.17H457.395L463.141 669.172ZM472.5 686.5L466.025 689.159L472.5 686.5ZM472.5 744.5L465.964 741.994L477.994 748.837L472.5 744.5ZM502 744.5L504.775 738.074L502 744.5ZM510.779 748.717L514.38 742.715L514.2 742.606L514.013 742.509L510.779 748.717ZM510.78 748.718L507.178 754.72L507.359 754.828L507.545 754.926L510.78 748.718ZM516.323 750.855L516.392 743.856H516.392L516.323 750.855ZM524.287 747.029L528.017 752.953L524.287 747.029ZM546 734.5L549.26 740.694H549.26L546 734.5ZM578.036 709.378L583.917 713.176L578.036 709.378ZM596 686.5L601.117 691.276H601.117L596 686.5ZM601.995 680.082L597.045 675.132L596.961 675.216L596.88 675.303L601.995 680.082ZM601.995 680.081L606.945 685.031L607.025 684.951L607.102 684.869L601.995 680.081ZM601.998 680.078L597.048 675.129L596.969 675.208L596.891 675.291L601.998 680.078ZM601.999 680.077L606.949 685.027L607.029 684.947L607.106 684.865L601.999 680.077ZM602.002 680.075L607.109 684.862L607.116 684.854L602.002 680.075ZM643.5 630.5L649.761 633.63V633.63L643.5 630.5ZM651.349 620.832L656.276 625.803L656.288 625.792L656.299 625.781L651.349 620.832ZM651.349 620.831L646.422 615.859L646.411 615.87L646.399 615.881L651.349 620.831ZM655.5 596.5L661.273 592.541H661.273L655.5 596.5ZM642.93 587.698L645.478 581.178H645.478L642.93 587.698ZM643.5 541L637.518 537.364L637.238 537.825L637.032 538.323L643.5 541ZM683.5 393.5L677.564 389.79L675.516 393.067L677.198 396.547L683.5 393.5ZM673.5 339.5L669.36 345.145L673.5 339.5ZM646.65 329.701L646.34 322.708L646.65 329.701ZM616 315.5L610.136 319.322L610.663 320.132L611.39 320.768L616 315.5ZM607.808 302.906L613.677 299.092L613.677 299.091L607.808 302.906ZM607.791 302.88L601.921 306.694L601.922 306.695L607.791 302.88ZM565.118 249.81L562.753 256.399L565.118 249.81ZM486 260L488.542 266.522L486 260ZM457.592 265.785L457.43 258.787L457.592 265.785ZM426.5 273.5L423.54 267.157L426.5 273.5ZM382.5 273.5L375.521 272.953L375.269 276.169L377.55 278.45L382.5 273.5ZM444.5 236V229H443.364L442.286 229.359L444.5 236ZM518 212L513.237 206.87L511 208.947V212H518ZM546 186L549.815 180.131L545.237 177.156L541.237 180.87L546 186ZM602.477 206.206L596.607 202.393L602.477 206.206ZM643.5 224L638.055 228.4L643.5 224ZM668 262.387L661.641 265.313L668 262.387ZM703.5 287.5L701.042 294.054L703.5 287.5ZM746.5 298.314L745.477 305.238L746.5 298.314ZM771.5 315.5L764.859 317.714L771.5 315.5ZM797.5 373.5L791.432 376.989L797.5 373.5ZM849.815 393.5V400.5H857.355L856.796 392.981L849.815 393.5ZM41.5028 241.978L35.1891 238.955L30.2698 249.229L41.6584 248.976L41.5028 241.978ZM244.257 40.4197L251.012 38.5832L248.822 30.5283L241.272 34.0881L244.257 40.4197ZM55.4995 236L61.3238 239.883H61.3238L55.4995 236ZM73.7983 218.299L78.285 223.672L78.3196 223.643L78.3539 223.614L73.7983 218.299ZM73.7985 218.299L69.3118 212.926L69.2772 212.955L69.2429 212.984L73.7985 218.299ZM107.499 186L112.843 190.522L107.499 186ZM166.777 154.295L168.49 161.082L168.498 161.08L168.506 161.078L166.777 154.295ZM166.779 154.295L165.066 147.508L165.058 147.51L165.05 147.512L166.779 154.295ZM190.999 148L189.163 141.245L190.999 148ZM218.149 121.041L224.632 118.401V118.401L218.149 121.041ZM216.999 106.5L223.22 109.71L223.22 109.71L216.999 106.5ZM229.287 93.606L224.981 88.0871L229.287 93.606ZM14.4608 315.105L20.2916 311.232L11.7118 298.316L7.69922 313.294L14.4608 315.105ZM127.307 729.031L122.401 734.025L128.842 740.353L133.365 732.538L127.307 729.031ZM137.5 714.5L142.449 719.45L137.5 714.5ZM139.404 661.885L146.32 660.802L139.404 661.885ZM138.056 631.299L145.049 631.617L138.056 631.299ZM137.5 561L144.387 559.748V559.748L137.5 561ZM135.495 547.157L128.541 547.958L135.495 547.157ZM125.5 521L131.502 517.398L125.5 521ZM104.519 496.708L109.058 491.379L109.058 491.379L104.519 496.708ZM89.4996 483L84.5498 487.95L89.4996 483ZM73.015 423.821L79.9414 424.833L73.015 423.821ZM53.9919 349.864L51.8768 356.537H51.8768L53.9919 349.864ZM35.4996 339.5L30.8168 344.703L35.4996 339.5ZM16.9044 318.895L10.99 322.64L10.99 322.64L16.9044 318.895ZM396.5 60.5L401.918 64.9326V64.9326L396.5 60.5ZM391.478 66.7821L385.981 62.4478V62.4478L391.478 66.7821ZM328.5 92.5L327.474 85.5755L328.5 92.5ZM298.096 99.4705L292.238 103.302L292.238 103.302L298.096 99.4705ZM291 106.5L293.897 112.873H293.897L291 106.5ZM282.143 111.02L285.507 117.158L285.507 117.158L282.143 111.02ZM275.696 113.465L279.732 107.746L279.732 107.746L275.696 113.465ZM280.69 92.9828L274.055 90.7524L274.045 90.7811L274.036 90.8098L280.69 92.9828ZM280.691 92.98L287.326 95.2104L287.341 95.1655L287.356 95.1205L280.691 92.98ZM280.692 92.9769L274.038 90.8039L274.032 90.8202L274.027 90.8364L280.692 92.9769ZM291 60.5L286.05 55.5502L284.815 56.7853L284.305 58.4557L291 60.5ZM703.5 596.5H710.5V582.686L699.36 590.855L703.5 596.5ZM673.5 618.5L677.143 624.477L677.398 624.322L677.64 624.145L673.5 618.5ZM703.5 698.5V705.5H710.5V698.5H703.5ZM673.5 698.5L669.617 704.324L671.381 705.5H673.5V698.5ZM655.5 686.5L649.316 683.22L646.35 688.813L651.617 692.324L655.5 686.5ZM303 140L297.176 136.117L289.92 147H303V140ZM311 128L308.113 121.623L306.287 122.449L305.176 124.117L311 128ZM346.5 140V147H348.439L350.101 146.002L346.5 140ZM366.5 128L370.101 134.002L375.089 131.01L373.061 125.559L366.5 128ZM358.5 106.5L365.061 104.059L362.445 97.0305L355.613 100.123L358.5 106.5ZM534.95 17.5502C533.318 15.918 532.625 14.0725 532.598 11.7606L518.599 11.9211C518.663 17.4758 520.553 22.9524 525.05 27.4497L534.95 17.5502ZM550.551 36.7743C547.914 30.3281 542.599 25.1997 534.95 17.5502L525.05 27.4497C533.597 35.9964 536.281 38.8669 537.594 42.0758L550.551 36.7743ZM553 60.5C553 50.2396 553.125 43.0643 550.551 36.7744L537.594 42.0758C538.875 45.2071 539 49.0301 539 60.5H553ZM513.519 97.8775C518.204 101.782 523.753 102.975 529.167 101.596C534.229 100.305 538.519 96.9505 541.844 93.0216C548.501 85.1544 553 73.0151 553 60.5H539C539 69.9849 535.499 78.8456 531.156 83.9784C528.981 86.5494 527.021 87.6948 525.708 88.0294C524.747 88.2745 523.796 88.2183 522.481 87.1224L513.519 97.8775ZM474.714 79.1408C476.012 78.708 478.166 78.5963 481.396 79.3487C484.556 80.0846 488.194 81.5192 492.082 83.4922C499.858 87.4379 507.792 93.1052 513.519 97.8775L522.481 87.1224C516.208 81.8948 507.392 75.5621 498.418 71.0077C493.931 68.7307 489.194 66.7904 484.572 65.7137C480.021 64.6536 474.988 64.2919 470.286 65.8592L474.714 79.1408ZM426.5 113.5C431.668 113.5 439.283 111.09 447.941 105.617C456.798 100.017 467.226 90.9202 478.061 76.7521L466.939 68.2478C456.974 81.2797 447.736 89.1829 440.459 93.7833C432.983 98.5098 427.998 99.5 426.5 99.5V113.5ZM433.5 128V106.5H419.5V128H433.5ZM411.9 174.119C420.253 169.478 433.5 154.388 433.5 128H419.5C419.5 149.612 408.747 159.855 405.1 161.881L411.9 174.119ZM392.431 153.696C401.983 160.519 401.633 166.644 401.636 166.627L415.364 169.373C416.701 162.69 413.417 151.481 400.569 142.304L392.431 153.696ZM361.192 154.462C364.62 153.033 370.606 151.241 376.873 150.726C383.294 150.199 388.802 151.104 392.431 153.696L400.569 142.304C392.998 136.896 383.506 136.134 375.727 136.773C367.794 137.425 360.38 139.633 355.808 141.538L361.192 154.462ZM346.5 155H358.5V141H346.5V155ZM364.502 164.398L352.502 144.398L340.498 151.601L352.498 171.601L364.502 164.398ZM373.333 178.481C372.481 174.645 371.562 171.566 370.571 169.131C369.617 166.785 368.42 164.589 366.778 162.929C365.043 161.173 362.225 159.516 358.712 160.101C355.536 160.631 353.609 162.717 352.676 164.117L364.324 171.883C364.058 172.282 363.064 173.569 361.013 173.911C358.625 174.309 357.124 173.077 356.822 172.771C356.614 172.561 356.966 172.839 357.604 174.407C358.205 175.884 358.919 178.155 359.667 181.518L373.333 178.481ZM350.981 241.378C354.352 238.568 358.281 232.422 362.072 223.216C366.004 213.671 370.127 199.997 373.396 181.199L359.604 178.801C356.473 196.803 352.596 209.462 349.128 217.884C347.392 222.097 345.782 225.193 344.456 227.342C343.793 228.415 343.224 229.215 342.773 229.781C342.548 230.063 342.366 230.27 342.228 230.416C342.087 230.565 342.016 230.624 342.019 230.622L350.981 241.378ZM311 243H346.5V229H311V243ZM314.34 253.848C311.722 252.427 310.839 251.203 310.537 250.598C310.27 250.063 310.172 249.455 310.385 248.529C310.913 246.228 313.095 243.355 315.466 241.39L306.534 230.61C303.072 233.478 298.253 238.806 296.74 245.396C295.932 248.915 296.053 252.926 298.01 256.849C299.932 260.701 303.278 263.773 307.66 266.152L314.34 253.848ZM335.5 287.5C335.5 279.705 331.201 263.001 314.34 253.848L307.66 266.152C318.799 272.199 321.5 283.295 321.5 287.5H335.5ZM297.601 307.83C301.839 295.821 307.6 292.149 311.85 291.094C316.607 289.912 321.632 291.455 324.78 293.429L332.22 281.571C326.868 278.212 317.943 275.155 308.475 277.506C298.5 279.984 289.761 287.979 284.399 303.17L297.601 307.83ZM268.466 363.873C274.296 356.585 287.743 335.759 297.601 307.83L284.399 303.17C275.057 329.641 262.37 349.081 257.534 355.127L268.466 363.873ZM251.949 406.55C248.948 403.549 248.456 397.651 252.628 387.971C256.504 378.977 263.206 369.804 268.232 364.151L257.768 354.849C252.127 361.196 244.428 371.623 239.771 382.429C235.41 392.549 232.25 406.651 242.05 416.45L251.949 406.55ZM261.272 443.939C261.393 437.755 261.548 430.958 260.551 424.703C259.53 418.295 257.216 411.817 251.949 406.55L242.05 416.45C244.539 418.939 245.987 422.273 246.726 426.907C247.489 431.695 247.402 437.171 247.275 443.664L261.272 443.939ZM268.418 478.567C261.037 469.547 260.997 457.92 261.272 443.939L247.275 443.664C247.02 456.632 246.414 473.782 257.582 487.433L268.418 478.567ZM277.095 490.104C274.877 486.979 272.125 483.098 268.418 478.567L257.582 487.433C260.959 491.559 263.47 495.095 265.679 498.207L277.095 490.104ZM309.84 498.097C302.782 499.283 297.64 499.942 293.726 500.124C289.808 500.307 287.55 499.985 286.082 499.5C283.458 498.634 281.955 496.949 277.095 490.104L265.679 498.207C269.856 504.091 273.902 510.224 281.696 512.796C285.438 514.03 289.606 514.331 294.377 514.109C299.152 513.887 304.96 513.113 312.16 511.903L309.84 498.097ZM354.569 496.851C345.223 495.399 334.905 493.886 309.84 498.097L312.16 511.903C335.547 507.974 344.342 509.43 352.419 510.685L354.569 496.851ZM366.5 498C362.011 498 358.613 497.48 354.569 496.851L352.419 510.685C356.483 511.317 360.826 512 366.5 512V498ZM408.5 498H366.5V512H408.5V498ZM451.446 520.132C450.094 509.313 436.778 498 408.5 498V512C434.622 512 437.573 522.021 437.554 521.868L451.446 520.132ZM431.703 545.683L449.703 525.683L439.297 516.317L421.297 536.317L431.703 545.683ZM463.427 577.992C459.733 552.596 439.063 538.524 429.121 534.509L423.879 547.491C431.27 550.476 446.867 561.404 449.573 580.008L463.427 577.992ZM467.103 596.577C465.882 591.33 464.504 585.397 463.427 577.992L449.573 580.008C450.742 588.048 452.242 594.485 453.467 599.749L467.103 596.577ZM462.1 634.7C467.056 628.092 469.447 622.071 469.793 615.429C470.114 609.276 468.602 603.021 467.103 596.577L453.467 599.749C455.099 606.767 456.009 610.926 455.812 614.7C455.641 617.984 454.574 621.401 450.9 626.3L462.1 634.7ZM468.887 665.174C466.705 662.037 465.707 660.594 464.924 656.82C464.011 652.42 463.5 645.095 463.5 630.5H449.5C449.5 645.032 449.975 653.687 451.216 659.664C452.586 666.266 454.908 669.596 457.395 673.17L468.887 665.174ZM478.975 683.841C474.828 673.742 471.441 668.844 468.887 665.174L457.395 673.17C459.609 676.352 462.398 680.329 466.025 689.159L478.975 683.841ZM479.036 747.005C483.21 736.118 489.115 708.529 478.975 683.841L466.025 689.159C474.285 709.271 469.457 732.882 465.964 741.994L479.036 747.005ZM504.775 738.074C485.833 729.894 472.36 733.381 467.006 740.162L477.994 748.837C477.64 749.286 482.967 743.906 499.225 750.926L504.775 738.074ZM514.013 742.509C511.935 741.427 509.011 739.903 504.775 738.074L499.225 750.926C502.982 752.549 505.543 753.882 507.545 754.925L514.013 742.509ZM514.381 742.715L514.38 742.715L507.177 754.72L507.178 754.72L514.381 742.715ZM516.392 743.856C516.897 743.861 517.099 744.006 516.658 743.824C516.436 743.732 516.126 743.589 515.667 743.36C515.206 743.13 514.683 742.858 514.014 742.51L507.545 754.926C508.752 755.554 510.08 756.253 511.305 756.76C512.615 757.302 514.28 757.836 516.254 757.855L516.392 743.856ZM520.557 741.106C518.32 742.515 517.114 743.265 516.239 743.711C515.453 744.111 515.699 743.849 516.392 743.856L516.253 757.855C518.804 757.88 520.915 757.039 522.587 756.188C524.171 755.383 526.018 754.211 528.017 752.953L520.557 741.106ZM542.74 728.306C531.464 734.24 524.809 738.429 520.557 741.106L528.017 752.953C532.125 750.366 538.438 746.39 549.26 740.694L542.74 728.306ZM572.156 705.58C569.392 709.86 567.851 712.201 564.406 715.093C560.705 718.2 554.666 722.028 542.74 728.306L549.26 740.694C561.287 734.364 568.474 729.956 573.407 725.816C578.595 721.461 581.095 717.545 583.917 713.176L572.156 705.58ZM590.883 681.724C580.155 693.218 575.566 700.301 572.156 705.58L583.917 713.176C587.059 708.311 591.146 701.96 601.117 691.276L590.883 681.724ZM596.88 675.303C594.96 677.358 592.961 679.497 590.883 681.724L601.117 691.276C603.193 689.053 605.189 686.917 607.109 684.861L596.88 675.303ZM597.046 675.132L597.045 675.132L606.944 685.032L606.945 685.031L597.046 675.132ZM596.891 675.291L596.889 675.294L607.102 684.869L607.105 684.866L596.891 675.291ZM597.049 675.128L597.048 675.129L606.948 685.028L606.949 685.027L597.049 675.128ZM596.895 675.287L596.892 675.29L607.106 684.865L607.109 684.862L596.895 675.287ZM637.239 627.369C634.853 632.142 630.919 637.604 624.339 645.281C617.775 652.94 608.911 662.428 596.887 675.295L607.116 684.854C619.055 672.078 628.163 662.333 634.969 654.392C641.758 646.47 646.593 639.966 649.761 633.63L637.239 627.369ZM646.421 615.86C643.641 618.616 639.715 622.418 637.239 627.37L649.761 633.63C651.031 631.09 653.189 628.863 656.276 625.803L646.421 615.86ZM646.399 615.881L646.399 615.882L656.299 625.781L656.299 625.781L646.399 615.881ZM649.727 600.459C653.067 605.33 652.651 607.522 652.305 608.56C651.674 610.45 649.976 612.337 646.422 615.859L656.277 625.803C659.188 622.918 663.693 618.658 665.584 612.994C667.76 606.477 666.187 599.707 661.273 592.541L649.727 600.459ZM640.382 594.218C644.546 595.845 647.408 597.076 649.727 600.459L661.273 592.541C656.305 585.296 649.667 582.815 645.478 581.178L640.382 594.218ZM637.032 538.323C632.798 548.556 629.945 556.611 628.247 563.015C626.573 569.328 625.874 574.56 626.407 578.936C626.986 583.697 629.012 587.304 632.183 589.91C634.909 592.149 638.25 593.384 640.382 594.218L645.478 581.178C642.82 580.139 641.749 579.65 641.072 579.093C640.84 578.903 640.474 578.643 640.304 577.246C640.088 575.464 640.283 572.247 641.779 566.603C643.252 561.05 645.846 553.638 649.968 543.676L637.032 538.323ZM677.198 396.547C679.93 402.198 682.56 416.934 677.973 441.029C673.441 464.838 661.968 497.14 637.518 537.364L649.482 544.636C674.632 503.26 686.825 469.396 691.727 443.646C696.573 418.183 694.403 399.968 689.802 390.453L677.198 396.547ZM669.36 345.145C679.52 352.595 682.738 361.375 683.004 369.334C683.282 377.654 680.308 385.399 677.564 389.79L689.436 397.21C693.358 390.934 697.385 380.48 696.996 368.866C696.596 356.892 691.48 344.005 677.64 333.855L669.36 345.145ZM646.96 336.695C650.007 336.559 652.203 336.488 655.195 337.342C658.299 338.228 662.699 340.26 669.36 345.145L677.64 333.855C670.169 328.377 664.266 325.371 659.038 323.879C653.699 322.356 649.535 322.567 646.34 322.708L646.96 336.695ZM611.39 320.768C620.141 328.425 626.794 332.67 632.603 334.832C638.676 337.092 643.314 336.856 646.96 336.695L646.34 322.708C642.977 322.858 640.753 322.927 637.485 321.711C633.953 320.397 628.785 317.386 620.61 310.232L611.39 320.768ZM601.938 306.72C604.48 310.632 607.206 314.827 610.136 319.322L621.864 311.677C618.94 307.192 616.22 303.005 613.677 299.092L601.938 306.72ZM601.922 306.695L601.939 306.721L613.677 299.091L613.66 299.065L601.922 306.695ZM562.753 256.399C566.197 257.635 569.798 260.297 575.846 268.093C581.925 275.93 589.727 287.926 601.921 306.694L613.661 299.066C601.633 280.554 593.439 267.932 586.908 259.513C580.346 251.053 574.721 245.82 567.482 243.222L562.753 256.399ZM546 255C554.785 255 559.1 255.088 562.753 256.399L567.482 243.222C561.048 240.912 553.977 241 546 241V255ZM488.542 266.522C503.445 260.712 510.841 257.97 517.935 256.552C524.953 255.148 531.876 255 546 255V241C532.124 241 523.797 241.102 515.19 242.823C506.659 244.53 498.055 247.788 483.458 253.478L488.542 266.522ZM457.753 272.783C465.299 272.609 473.536 272.372 488.542 266.522L483.458 253.478C470.49 258.533 464.016 258.635 457.43 258.787L457.753 272.783ZM429.46 279.843C436.981 276.333 442.266 274.658 446.426 273.808C450.574 272.959 453.845 272.873 457.753 272.783L457.43 258.787C453.502 258.877 449.116 258.968 443.621 260.091C438.137 261.213 431.794 263.305 423.54 267.157L429.46 279.843ZM377.55 278.45C384.795 285.695 403.491 291.962 429.46 279.843L423.54 267.157C401.509 277.438 389.538 270.638 387.45 268.55L377.55 278.45ZM396.5 241C391.8 241 388.07 243.151 385.383 245.863C382.798 248.472 380.984 251.765 379.69 254.867C377.098 261.079 375.891 268.24 375.521 272.953L389.479 274.047C389.776 270.26 390.769 264.671 392.61 260.258C393.532 258.048 394.494 256.559 395.329 255.715C396.064 254.974 396.4 255 396.5 255V241ZM442.286 229.359C436.387 231.326 426.922 234.283 417.783 236.74C408.292 239.291 400.209 241 396.5 241V255C402.391 255 412.308 252.709 421.417 250.26C430.878 247.717 440.613 244.674 446.714 242.641L442.286 229.359ZM486 229H444.5V243H486V229ZM511 212C511 214.383 509.973 218.587 506.55 222.152C503.298 225.54 497.25 229 486 229V243C500.35 243 510.302 238.46 516.65 231.848C522.827 225.413 525 217.616 525 212H511ZM541.237 180.87L513.237 206.87L522.763 217.13L550.763 191.13L541.237 180.87ZM596 205C596.063 205 595.542 204.978 594.184 204.555C592.941 204.168 591.37 203.565 589.495 202.744C585.751 201.105 581.209 198.78 576.377 196.119C566.734 190.806 556.384 184.401 549.815 180.131L542.185 191.869C548.949 196.266 559.6 202.86 569.623 208.381C574.624 211.136 579.583 213.687 583.88 215.569C586.026 216.508 588.111 217.327 590.019 217.921C591.813 218.48 593.937 219 596 219V205ZM596.607 202.393C596.097 203.177 595.697 203.79 595.311 204.333C594.927 204.873 594.661 205.192 594.484 205.375C594.306 205.559 594.347 205.471 594.613 205.33C594.934 205.161 595.427 205 596 205V219C600.022 219 602.848 216.865 604.549 215.106C606.148 213.452 607.469 211.371 608.347 210.02L596.607 202.393ZM648.945 219.6C641.512 210.402 635.309 203.883 630.017 199.477C624.814 195.144 619.933 192.378 615.156 191.609C609.881 190.76 605.647 192.478 602.509 195.124C599.755 197.447 597.804 200.549 596.607 202.393L608.347 210.02C609.796 207.789 610.654 206.569 611.534 205.827C612.029 205.41 612.255 205.322 612.93 205.431C614.104 205.62 616.664 206.576 621.058 210.235C625.364 213.82 630.914 219.562 638.055 228.4L648.945 219.6ZM674.36 259.462C670.731 251.573 665.284 239.82 648.945 219.6L638.055 228.4C653.483 247.491 658.359 258.178 661.641 265.313L674.36 259.462ZM705.958 280.946C691.333 275.461 684.752 272.352 681.1 269.577C678.045 267.256 677.01 265.222 674.36 259.462L661.641 265.313C664.237 270.957 666.482 276.054 672.63 280.725C678.181 284.942 686.727 288.686 701.042 294.054L705.958 280.946ZM747.524 291.389C737.921 289.969 724.888 288.044 705.958 280.946L701.042 294.054C721.352 301.67 735.529 303.768 745.477 305.238L747.524 291.389ZM778.141 313.286C775.509 305.39 772.016 299.786 766.047 296.317C760.735 293.23 754.106 292.362 747.524 291.389L745.477 305.238C753.036 306.356 756.542 306.986 759.012 308.421C760.825 309.475 762.761 311.42 764.859 317.714L778.141 313.286ZM803.568 370.011C792.291 350.398 785.987 336.824 778.141 313.286L764.859 317.714C773.013 342.176 779.709 356.602 791.432 376.989L803.568 370.011ZM827 386.5C823.25 386.5 811.397 383.626 803.568 370.011L791.432 376.989C802.003 395.374 818.75 400.5 827 400.5V386.5ZM849.815 386.5H827V400.5H849.815V386.5ZM523.958 18.6458C697.723 60.5439 829.218 210.884 842.834 394.019L856.796 392.981C842.721 203.684 706.824 48.337 527.24 5.03584L523.958 18.6458ZM47.8164 245.001C89.4075 158.133 160.092 87.8415 247.243 46.7512L241.272 34.0881C151.206 76.553 78.1711 149.183 35.1891 238.955L47.8164 245.001ZM49.6751 232.117C48.9021 233.277 48.0511 233.855 46.946 234.245C45.6319 234.708 43.8895 234.923 41.3471 234.98L41.6584 248.976C47.4087 248.848 55.8739 248.058 61.3238 239.883L49.6751 232.117ZM69.3116 212.926C61.5166 219.435 54.0089 225.616 49.6751 232.117L61.3238 239.883C64.2708 235.462 69.8417 230.723 78.285 223.672L69.3116 212.926ZM69.2429 212.984L69.2428 212.984L78.3539 223.614L78.354 223.614L69.2429 212.984ZM102.156 181.478C90.5969 195.139 79.0291 204.812 69.3118 212.926L78.2852 223.672C88.0143 215.548 100.424 205.198 112.843 190.522L102.156 181.478ZM165.064 147.508C149.674 151.393 138.527 154.171 129.057 158.851C119.238 163.703 111.518 170.414 102.156 181.478L112.843 190.522C121.495 180.296 127.767 175.104 135.259 171.402C143.1 167.527 152.585 165.097 168.49 161.082L165.064 147.508ZM165.05 147.512L165.048 147.512L168.506 161.078L168.508 161.078L165.05 147.512ZM189.163 141.245C179.902 143.763 171.99 145.76 165.066 147.508L168.492 161.082C175.415 159.334 183.438 157.309 192.836 154.755L189.163 141.245ZM211.666 123.681C213.826 128.984 213.621 129.694 213.034 130.569C212.491 131.38 211.002 132.919 207.092 134.895C203.234 136.845 197.513 138.975 189.163 141.245L192.836 154.755C201.65 152.359 208.372 149.934 213.407 147.39C218.392 144.871 222.245 141.975 224.666 138.36C230.007 130.385 226.213 122.281 224.632 118.401L211.666 123.681ZM210.779 103.289C206.431 111.713 209.982 119.546 211.666 123.681L224.632 118.401C222.575 113.349 222.233 111.623 223.22 109.71L210.779 103.289ZM224.981 88.0871C220.379 91.6779 214.45 96.1767 210.779 103.289L223.22 109.71C225.263 105.752 228.619 103.006 233.594 99.1248L224.981 88.0871ZM239.999 60.5C239.999 68.9398 238.042 74.1452 235.552 77.8799C232.92 81.8274 229.395 84.6432 224.981 88.0871L233.594 99.1248C237.799 95.8432 243.131 91.7491 247.2 85.6465C251.411 79.3312 253.999 71.3463 253.999 60.5H239.999ZM237.503 42.2561C239.029 47.8698 239.999 54.0149 239.999 60.5H253.999C253.999 52.6191 252.82 45.2344 251.012 38.5832L237.503 42.2561ZM7 425.5C7 387.936 11.9474 351.537 21.2223 316.917L7.69922 313.294C-1.88941 349.086 -7 386.701 -7 425.5H7ZM132.213 724.038C54.9231 648.099 7 542.402 7 425.5H-7C-7 546.31 42.5424 655.562 122.401 734.025L132.213 724.038ZM132.55 709.55C128.803 713.297 124.883 719.246 121.249 725.525L133.365 732.538C136.931 726.379 140.089 721.81 142.449 719.45L132.55 709.55ZM132.488 662.969C133.911 672.049 135.545 682.553 135.799 691.834C135.926 696.465 135.696 700.49 135.037 703.696C134.361 706.985 133.374 708.726 132.55 709.55L142.449 719.45C146.011 715.888 147.807 711.105 148.75 706.515C149.711 701.842 149.936 696.631 149.794 691.451C149.511 681.111 147.712 669.693 146.32 660.802L132.488 662.969ZM130.5 646.5C130.5 650.421 131.502 656.67 132.488 662.969L146.32 660.802C145.234 653.874 144.5 649.035 144.5 646.5H130.5ZM131.064 630.98C130.758 637.682 130.5 643.315 130.5 646.5H144.5C144.5 643.722 144.735 638.516 145.049 631.617L131.064 630.98ZM130.612 562.252C131.985 569.799 132.376 581.634 132.257 594.572C132.139 607.362 131.533 620.679 131.064 630.98L145.049 631.617C145.517 621.35 146.136 607.785 146.256 594.701C146.376 581.765 146.021 568.735 144.387 559.748L130.612 562.252ZM128.541 547.958C128.938 551.405 129.451 555.864 130.612 562.252L144.387 559.748C143.309 553.818 142.836 549.722 142.449 546.356L128.541 547.958ZM119.497 524.601C123.787 531.751 125.719 535.593 126.762 538.533C127.752 541.326 128.028 543.511 128.541 547.958L142.449 546.356C141.952 542.042 141.55 538.348 139.956 533.853C138.414 529.506 135.853 524.65 131.502 517.398L119.497 524.601ZM99.9805 502.037C107.501 508.442 112.165 512.381 119.497 524.601L131.502 517.398C123.071 503.347 117.148 498.269 109.058 491.379L99.9805 502.037ZM84.5498 487.95C90.9342 494.334 95.8746 498.54 99.9805 502.037L109.058 491.379C105.007 487.929 100.42 484.021 94.4493 478.05L84.5498 487.95ZM64.4996 439C64.4996 446.811 64.4409 454.46 67.1088 462.464C69.8236 470.608 75.108 478.508 84.5498 487.95L94.4493 478.05C85.8912 469.492 82.1756 463.392 80.3904 458.036C78.5583 452.54 78.4996 447.189 78.4996 439H64.4996ZM66.0885 422.809C65.3115 428.127 64.4996 433.591 64.4996 439H78.4996C78.4996 434.795 79.1318 430.374 79.9414 424.833L66.0885 422.809ZM64.7086 375.198C69.9649 396.223 67.9005 410.406 66.0885 422.809L79.9414 424.833C81.8241 411.946 84.2274 395.549 78.2906 371.802L64.7086 375.198ZM51.8768 356.537C55.8433 357.794 57.1885 358.345 58.5573 359.883C60.1856 361.713 62.3145 365.621 64.7086 375.198L78.2906 371.802C75.7739 361.736 72.9921 355.044 69.0158 350.576C64.78 345.816 59.8268 344.371 56.107 343.191L51.8768 356.537ZM30.8168 344.703C39.6229 352.629 46.6568 354.883 51.8768 356.537L56.107 343.191C51.6563 341.781 46.8226 340.273 40.1823 334.297L30.8168 344.703ZM10.99 322.64C12.8152 325.523 14.4733 328.152 17.4249 331.563C20.2959 334.881 24.2966 338.835 30.8168 344.703L40.1823 334.297C33.8007 328.553 30.3094 325.057 28.0111 322.402C25.7933 319.839 24.6048 317.972 22.8188 315.151L10.99 322.64ZM8.62998 318.979C9.52348 320.324 10.2679 321.499 10.99 322.64L22.8188 315.151C22.0991 314.014 21.28 312.72 20.2916 311.232L8.62998 318.979ZM382.5 31.5H328.5V45.5H382.5V31.5ZM401.918 64.9326C405.93 60.0291 408.534 55.0845 408.871 50.1111C409.242 44.6433 406.807 40.3727 403.377 37.5187C400.214 34.8875 396.261 33.4548 392.808 32.6467C389.254 31.815 385.599 31.5 382.5 31.5V45.5C384.734 45.5 387.296 45.7349 389.617 46.2783C392.039 46.8451 393.619 47.6124 394.423 48.2812C394.959 48.7272 394.924 48.8566 394.904 49.1638C394.849 49.9654 394.27 52.1708 391.082 56.0673L401.918 64.9326ZM396.975 71.1165C398.471 69.219 400.078 67.181 401.918 64.9326L391.082 56.0673C389.153 58.4256 387.473 60.5558 385.981 62.4478L396.975 71.1165ZM329.526 99.4244C353.418 95.8848 366.984 93.4055 376.109 89.4548C386.026 85.1612 390.649 79.139 396.975 71.1164L385.981 62.4478C379.531 70.6276 376.838 73.8832 370.547 76.6073C363.463 79.6743 351.928 81.9527 327.474 85.5755L329.526 99.4244ZM303.954 95.6388C303.626 95.1364 304.199 95.8927 304.498 96.9266C304.701 97.6254 304.866 98.669 304.634 99.8978C304.397 101.154 303.831 102.144 303.242 102.841C302.699 103.484 302.167 103.846 301.908 104.006C301.764 104.095 301.651 104.154 301.583 104.187C301.513 104.222 301.472 104.238 301.468 104.24C301.465 104.241 301.549 104.207 301.757 104.144C301.96 104.081 302.243 104.002 302.624 103.907C305.969 103.071 313.449 101.806 329.526 99.4244L327.474 85.5755C311.677 87.9159 303.396 89.2831 299.229 90.3248C298.157 90.5927 297.108 90.8982 296.175 91.2794C295.423 91.5862 293.825 92.2925 292.545 93.8095C291.802 94.6888 291.15 95.8599 290.878 97.298C290.611 98.7091 290.794 99.9363 291.051 100.822C291.293 101.658 291.629 102.289 291.816 102.619C292.001 102.945 292.196 103.238 292.238 103.302L303.954 95.6388ZM293.897 112.873C296.338 111.763 298.314 110.714 299.879 109.681C301.374 108.693 302.905 107.455 304.012 105.823C305.29 103.939 305.924 101.621 305.458 99.1803C305.083 97.2147 304.037 95.7649 303.954 95.6387L292.238 103.302C292.543 103.769 291.931 102.982 291.706 101.805C291.572 101.102 291.57 100.329 291.748 99.5597C291.92 98.8168 292.211 98.2807 292.426 97.9635C292.789 97.4288 292.964 97.4695 292.163 97.9988C291.43 98.4826 290.169 99.1884 288.103 100.127L293.897 112.873ZM285.507 117.158C287.84 115.88 290.58 114.38 293.897 112.873L288.103 100.127C284.262 101.874 281.115 103.601 278.778 104.882L285.507 117.158ZM271.659 119.184C273.935 120.791 276.32 120.713 277.553 120.541C278.817 120.364 279.924 119.946 280.664 119.635C282.148 119.01 283.918 118.029 285.507 117.158L278.778 104.882C277.897 105.364 277.179 105.758 276.551 106.087C275.913 106.421 275.498 106.619 275.231 106.732C274.901 106.871 275.099 106.748 275.613 106.676C276.096 106.608 277.89 106.446 279.732 107.746L271.659 119.184ZM274.036 90.8098C271.774 97.7346 270.094 102.869 269.181 106.367C268.737 108.065 268.342 109.853 268.258 111.473C268.206 112.476 268.03 116.623 271.659 119.184L279.732 107.746C281.231 108.804 281.847 110.198 282.075 111.023C282.184 111.421 282.22 111.732 282.232 111.904C282.245 112.081 282.24 112.186 282.24 112.194C282.24 112.194 282.251 112.016 282.334 111.585C282.413 111.171 282.539 110.621 282.726 109.905C283.505 106.923 285.011 102.301 287.344 95.1557L274.036 90.8098ZM274.056 90.7497L274.055 90.7524L287.325 95.2131L287.326 95.2104L274.056 90.7497ZM274.027 90.8364L274.026 90.8395L287.356 95.1205L287.357 95.1174L274.027 90.8364ZM284.305 58.4557C280.046 72.4047 276.608 82.9336 274.038 90.8039L287.346 95.1499C289.921 87.2647 293.394 76.6291 297.695 62.5442L284.305 58.4557ZM328.5 31.5C324.414 31.5 318.322 33.0807 311.255 36.6526C304.013 40.313 295.333 46.2671 286.05 55.5502L295.95 65.4497C304.267 57.1328 311.754 52.0869 317.57 49.1473C323.561 46.1193 327.419 45.5 328.5 45.5V31.5ZM699.36 590.855L669.36 612.855L677.64 624.145L707.64 602.145L699.36 590.855ZM710.5 630.5V596.5H696.5V630.5H710.5ZM710.5 698.5V630.5H696.5V698.5H710.5ZM673.5 705.5H703.5V691.5H673.5V705.5ZM651.617 692.324L669.617 704.324L677.383 692.676L659.383 680.676L651.617 692.324ZM653.266 653.134C654.714 653.621 655.388 654.373 655.853 655.632C656.442 657.224 656.662 659.727 656.21 663.162C655.31 670.005 652.104 677.962 649.316 683.22L661.684 689.78C664.896 683.724 668.891 674.106 670.09 664.989C670.688 660.444 670.683 655.372 668.984 650.777C667.162 645.848 663.486 641.803 657.734 639.866L653.266 653.134ZM669.857 612.523C663.666 616.296 654.842 622.525 649.334 628.812C646.798 631.708 643.715 635.982 643.554 640.878C643.461 643.696 644.351 646.495 646.377 648.813C648.263 650.969 650.762 652.291 653.266 653.134L657.734 639.866C656.638 639.497 656.625 639.264 656.917 639.597C657.349 640.092 657.564 640.801 657.546 641.338C657.535 641.673 657.602 640.621 659.866 638.037C663.958 633.364 671.334 628.018 677.143 624.477L669.857 612.523ZM308.824 143.883L316.824 131.883L305.176 124.117L297.176 136.117L308.824 143.883ZM346.5 133H303V147H346.5V133ZM362.899 121.998L342.899 133.998L350.101 146.002L370.101 134.002L362.899 121.998ZM351.939 108.941L359.939 130.441L373.061 125.559L365.061 104.059L351.939 108.941ZM313.887 134.377L361.387 112.877L355.613 100.123L308.113 121.623L313.887 134.377Z" fill="black" mask="url(#path-2-inside-1_143_8)"/>
<path fill-rule="evenodd" clip-rule="evenodd" d="M687.144 761.074C614.975 817.424 524.16 851 425.502 851C190.505 851 0.00195312 660.497 0.00195312 425.5C0.00195312 280.518 72.5131 152.472 183.248 75.649C-52.1775 444.446 162.315 890.987 687.144 761.074Z" fill="black" fill-opacity="0.2"/>
</svg>
