<svg width="535" height="293" viewBox="0 0 535 293" fill="none" xmlns="http://www.w3.org/2000/svg">
<path d="M379.167 57.3356C438.659 58.7298 485.254 112.943 486.415 176.863C504.446 177.69 517.46 187.53 524.946 200.777C532.722 214.535 534.581 232.005 530.122 247.095C525.641 262.258 514.71 275.175 496.882 279.302C479.569 283.31 456.267 278.906 426.779 261.222C424.634 263.94 421.521 266.605 417.794 269.13C413.077 272.327 407.181 275.428 400.528 278.228C387.225 283.828 370.703 288.303 354.123 289.884C337.572 291.462 320.74 290.178 306.964 284.034C294.323 278.395 284.331 268.684 279.592 253.64C269.818 264.163 253.759 275.457 234.5 281.416C213.28 287.982 188.063 288.097 163.12 273.457C127.758 291.934 95.0576 292.238 68.4679 281.84C41.6317 271.346 21.2118 250.027 10.6158 225.956C0.0261841 201.9 -0.852539 174.821 11.8683 152.947C24.3175 131.54 49.4575 115.68 89.7839 112.314C87.4889 101.92 91.6055 92.0742 99.1625 83.629C107.434 74.385 120.056 66.5058 133.997 60.737C147.963 54.9577 163.453 51.2134 177.62 50.3755C190.243 49.6289 202.135 51.173 210.934 55.9558C222.581 18.1487 263.288 1.58456 301.043 2.53927C320.545 3.03241 339.641 8.17244 354.114 17.7341C368 26.9077 377.705 40.2244 379.167 57.3356Z" fill="#F9F4EC" stroke="black" stroke-width="5"/>
<path d="M318.948 163.264C308.893 173.591 281.887 189.377 254.307 169.903" stroke="black" stroke-width="10" stroke-linecap="round" stroke-linejoin="round"/>
<ellipse cx="5.54066" cy="4.97912" rx="5.54066" ry="4.97912" transform="matrix(-1 0 0 1 323.874 121.218)" fill="black"/>
<ellipse cx="5.54066" cy="4.97912" rx="5.54066" ry="4.97912" transform="matrix(-1 0 0 1 261.079 123.431)" fill="black"/>
</svg>
