<svg width="437" height="266" viewBox="0 0 437 266" fill="none" xmlns="http://www.w3.org/2000/svg">
<path d="M127.051 52.0717C78.497 53.6182 40.9644 102.752 39.9331 160.11C25.2136 161.022 14.6747 170.042 8.64302 181.918C2.31524 194.377 0.811591 210.166 4.43212 223.801C8.06215 237.471 16.9713 249.325 31.7323 253.127C45.9636 256.793 64.922 252.778 88.6925 237.031C90.4407 239.374 92.882 241.666 95.7648 243.84C99.6287 246.753 104.45 249.574 109.882 252.118C120.739 257.204 134.226 261.27 147.772 262.708C161.291 264.142 175.101 262.982 186.429 257.359C196.631 252.295 204.655 243.687 208.6 230.553C216.626 239.88 229.452 249.744 244.785 255.023C262.095 260.983 282.668 261.109 302.991 247.978C331.728 264.569 358.387 264.839 380.104 255.389C402.063 245.834 418.689 226.466 427.298 204.704C435.902 182.954 436.62 158.483 426.275 138.689C416.166 119.345 395.744 104.942 363.041 101.792C364.818 92.4776 361.49 83.6363 355.352 76.0029C348.59 67.5943 338.276 60.4316 326.894 55.1906C315.495 49.9415 302.838 46.5334 291.239 45.7701C281.211 45.1101 271.672 46.4113 264.458 50.5203C254.78 16.6461 221.727 1.6693 190.934 2.53576C174.978 2.98476 159.343 7.66534 147.489 16.3797C136.16 24.7077 128.298 36.7268 127.051 52.0717Z" fill="#F9F4EC" stroke="black" stroke-width="5"/>
<path d="M176.411 148.035C184.578 157.368 206.511 171.635 228.911 154.035" stroke="black" stroke-width="10" stroke-linecap="round" stroke-linejoin="round"/>
<circle cx="176.911" cy="114.535" r="4.5" fill="black"/>
<circle cx="227.911" cy="116.535" r="4.5" fill="black"/>
</svg>
